<svg xmlns="http://www.w3.org/2000/svg" data-name="Layer 1" viewBox="0 0 128.65 112.38"><path d="M3.22 61.62V43.54a6 6 0 0 1 6-5.95l29.71.41V9.25A6 6 0 0 1 44.8 3.3L69.25 3a6 6 0 0 1 6 6l-.18 28.54 40.21.33" style="stroke:#0483e9;fill:none;stroke-linecap:square;stroke-linejoin:round;stroke-width:6px"/><path d="m112.51 47.1 16.14-9.13-15.98-9.41-.16 18.54z" style="fill:#0483e9"/><path d="M3 74.34h35.71V103a6.39 6.39 0 0 0 6.4 6.4h23.35a6.39 6.39 0 0 0 6.4-6.4V74.12h24.36" style="stroke:#299c47;fill:none;stroke-linecap:square;stroke-linejoin:round;stroke-width:6px"/><path d="m96.59 83.1 15.55-8.98-15.55-8.97V83.1z" style="fill:#299c47"/></svg>